# xmcd
#
# Track frame offsets: 
#        182
#        52962
#        87985
#        119625
#        175665
#        209502
#
# Disc length: 3185 seconds
#
# Revision: 2
# Processed by: cddbd v1.5.2PL0 Copyright (c) Steve Scherf et al.
# Submitted via: ExactAudioCopy v1.0b3
#
DISCID=4f0c6f06
DTITLE=Qin Opera Ping Opera Yu Opera - An Introduction to Chinese Oper
DTITLE=a
DYEAR=1995
DGENRE=Opera
TTITLE0=Xiao Yuelan - Washing Clothes by the Riverside
TTITLE1=Ma Youxian - The Ruined Bridge
TTITLE2=Gu Wenyue - Flowers as a Match-maker
TTITLE3=Zhang Baoying - The Peach-Blossom Temple
TTITLE4=Chang Xiangyu - Beating the Maid-Servant
TTITLE5=Yan Lipin - Teaching the Daughter
EXTD=
EXTT0=
EXTT1=
EXTT2=
EXTT3=
EXTT4=
EXTT5=
PLAYORDER=
